<svg xmlns="http://www.w3.org/2000/svg" viewBox="0 0 48 48">
  <path d="M15 7C8.9524409 7 4 11.952441 4 18C4 21.391733 6.0285443 24.438414 8.6289062 27.494141C11.229268 30.549867 14.561703 33.625414 17.791016 36.644531C19.330411 38.082998 22.568359 41.396484 22.568359 41.396484 A 2.0002 2.0002 0 0 0 25.431641 41.396484C25.431641 41.396484 28.669589 38.082998 30.208984 36.644531C33.438297 33.625414 36.770732 30.549867 39.371094 27.494141C41.971456 24.438414 44 21.391733 44 18C44 11.952441 39.047559 7 33 7C29.68243 7 26.544072 8.5109294 24 11.601562C21.455928 8.5109294 18.31757 7 15 7 z M 15 11C17.760636 11 19.686767 11.855295 21.886719 15.335938 A 2.0002 2.0002 0 0 0 21.886719 15.337891L22.310547 16.005859 A 2.0002 2.0002 0 0 0 25.689453 16.005859L26.113281 15.337891 A 2.0002 2.0002 0 0 0 26.113281 15.335938C28.313233 11.855296 30.239364 11 33 11C36.878441 11 40 14.121559 40 18C40 19.608267 38.684857 22.128321 36.324219 24.902344C33.963581 27.676367 30.717203 30.694774 27.478516 33.722656C26.256877 34.8642 25.036192 36.125529 24 37.179688C22.963808 36.125529 21.743123 34.8642 20.521484 33.722656C17.282797 30.694774 14.036419 27.676367 11.675781 24.902344C9.3151436 22.128321 8 19.608267 8 18C8 14.121559 11.121559 11 15 11 z" fill="#2B2D42" />
</svg>