<svg xmlns="http://www.w3.org/2000/svg" viewBox="0 0 48 48">
  <path d="M39.306641 8.7089844C39.031945 8.7221262 38.754674 8.7692712 38.478516 8.8535156L6.4785156 18.632812C5.0111799 19.080681 4 20.448454 4 21.980469L4 27.019531C4 28.551546 5.0111799 29.919319 6.4785156 30.367188L12.207031 32.117188C11.794768 35.886516 13.974917 39.560885 17.732422 40.671875C21.441616 41.767504 25.213219 39.927277 26.951172 36.623047L38.478516 40.146484L38.476562 40.144531C40.686641 40.820487 43 39.109346 43 36.798828L43 12.201172C43 10.468283 41.699587 9.0728237 40.117188 8.7675781C39.853454 8.7167039 39.581336 8.6958425 39.306641 8.7089844 z M 15.078125 32.994141L24.091797 35.75C22.908466 37.522538 20.744511 38.433679 18.582031 37.794922C16.389921 37.146776 15.069868 35.159784 15.078125 32.994141 z" fill="#2B2D42" />
</svg>