<svg xmlns="http://www.w3.org/2000/svg" viewBox="0 0 48 48">
  <path d="M36.5,6h-25C8.468,6,6,8.467,6,11.5v25c0,3.033,2.468,5.5,5.5,5.5h25c3.032,0,5.5-2.467,5.5-5.5v-25C42,8.467,39.532,6,36.5,6z M28.766,28.695c0.444,0.699,0.238,1.626-0.46,2.071C28.056,30.924,27.777,31,27.501,31c-0.495,0-0.98-0.246-1.267-0.695L24,26.794l-2.234,3.511C21.48,30.754,20.994,31,20.499,31c-0.276,0-0.555-0.076-0.805-0.234c-0.698-0.445-0.904-1.372-0.46-2.071L22.222,24l-2.988-4.695c-0.444-0.699-0.238-1.626,0.46-2.071c0.698-0.443,1.626-0.24,2.071,0.46L24,21.206l2.234-3.511c0.446-0.7,1.374-0.904,2.071-0.46c0.698,0.445,0.904,1.372,0.46,2.071L25.778,24L28.766,28.695z" fill="#2B2D42" />
</svg>